<?xml version="1.0" standalone="no"?><!DOCTYPE svg PUBLIC "-//W3C//DTD SVG 1.1//EN" "http://www.w3.org/Graphics/SVG/1.1/DTD/svg11.dtd"><svg t="1762498807050" class="icon" viewBox="0 0 1024 1024" version="1.1" xmlns="http://www.w3.org/2000/svg" p-id="5439" xmlns:xlink="http://www.w3.org/1999/xlink" width="200" height="200"><path d="M512 512m-59.076923 0a59.076923 59.076923 0 1 0 118.153846 0 59.076923 59.076923 0 1 0-118.153846 0Z" p-id="5440" fill="#1299ed"></path><path d="M512 905.846154C295.384615 905.846154 118.153846 728.615385 118.153846 512S295.384615 118.153846 512 118.153846s393.846154 177.230769 393.846154 393.846154-177.230769 393.846154-393.846154 393.846154z m0-748.307692C317.046154 157.538462 157.538462 317.046154 157.538462 512s159.507692 354.461538 354.461538 354.461538 354.461538-159.507692 354.461538-354.461538S706.953846 157.538462 512 157.538462z" p-id="5441" fill="#1299ed"></path><path d="M512 1004.307692c-11.815385 0-19.692308-7.876923-19.692308-19.692307V708.923077c0-11.815385 7.876923-19.692308 19.692308-19.692308s19.692308 7.876923 19.692308 19.692308v275.692308c0 11.815385-9.846154 19.692308-19.692308 19.692307zM984.615385 531.692308H708.923077c-11.815385 0-19.692308-7.876923-19.692308-19.692308s7.876923-19.692308 19.692308-19.692308h275.692308c11.815385 0 19.692308 7.876923 19.692307 19.692308s-7.876923 19.692308-19.692307 19.692308zM512 334.769231c-11.815385 0-19.692308-7.876923-19.692308-19.692308V39.384615c0-11.815385 7.876923-19.692308 19.692308-19.692307s19.692308 7.876923 19.692308 19.692307v275.692308c0 11.815385-9.846154 19.692308-19.692308 19.692308zM315.076923 531.692308H39.384615c-11.815385 0-19.692308-7.876923-19.692307-19.692308s7.876923-19.692308 19.692307-19.692308h275.692308c11.815385 0 19.692308 7.876923 19.692308 19.692308s-7.876923 19.692308-19.692308 19.692308z" p-id="5442" fill="#1299ed"></path></svg>